<?xml version="1.0" encoding="UTF-8"?>
<!-- Generator: visioncortex VTracer 0.6.12 -->
<svg version="1.1" xmlns="http://www.w3.org/2000/svg" width="638" height="710">
<path d="M0 0 C210.5 0 421.1 0 638 0 C638 234.3 638 468.6 638 710 C427.5 710 216.9 710 0 710 C0 475.7 0 241.4 0 0 Z " fill="#FEFEFE" transform="translate(0,0)"/>
<path d="M0 0 C1.5 0 3 0 4.5 0 C15.4 0 15.4 0 17.7 1.2 C20.4 1.6 23.1 1.9 25.8 2.2 C27.3 2.4 28.7 2.6 30.3 2.8 C31.4 2.9 32.5 3.1 33.7 3.2 C33.7 3.8 33.7 4.5 33.7 5.2 C34.2 5.2 34.2 5.2 36.8 5 C47 5.4 56.4 8.1 65.7 12.2 C65.7 12.8 65.7 13.5 65.7 14.2 C67.2 14.6 68.7 15.1 70.2 15.5 C74.8 16.9 79.2 18.5 83.7 20.2 C83.7 20.8 83.7 21.5 83.7 22.2 C84.5 22.4 85.4 22.7 86.2 23 C89.9 24.3 93.4 25.8 96.9 27.6 C98.1 28.1 99.3 28.7 100.5 29.3 C103.7 31.2 103.7 31.2 106.7 35.2 C109 36.5 111.3 37.9 113.7 39.2 C116 41.2 118.4 43.2 120.7 45.2 C121.6 45.7 122.4 46.2 123.3 46.7 C126.5 48.7 128.3 51.3 130.7 54.2 C131.8 55.1 132.9 56.1 134.1 57.1 C138.8 61.2 143.1 65.5 146.3 70.9 C147.7 73.2 147.7 73.2 150 74.9 C153.8 78.1 156.1 82 158.7 86.2 C159.3 87.1 159.9 88 160.5 88.9 C161.9 91.6 162.3 94.1 162.7 97.2 C163.3 97.2 164 97.2 164.7 97.2 C166.7 100.2 166.7 100.2 166.7 103.2 C167.3 103.2 168 103.2 168.7 103.2 C169 104.2 169.4 105.2 169.8 106.2 C171.3 110.4 173.2 114.3 175.1 118.3 C191.8 153.7 190.9 193 186.7 231.2 C186 231.2 185.4 231.2 184.7 231.2 C184.2 234 184.2 234 181.7 248.2 C185.6 248.5 189.6 248.8 193.7 249.2 C193.8 247.3 193.9 245.4 194 243.5 C194.5 236.5 196 230 197.7 223.2 C198 221.5 198.4 219.9 198.8 218.2 C199.5 214.9 200.4 212.2 201.7 209.2 C201.9 208.4 201.9 208.4 203.1 204.4 C204.5 199.4 206.5 194.9 208.7 190.2 C209.2 189 209.7 187.8 210.2 186.5 C214.3 177.4 220.7 169.8 230.7 167.2 C242.2 165.9 250.1 167.8 257.9 176.5 C269.1 193.3 261.3 220.7 258.7 239.2 C258 239.2 257.4 239.2 256.7 239.2 C256.6 240.2 256.6 241.3 256.5 242.4 C256.1 249.9 255.6 256.9 253.7 264.2 C254.4 264.1 255.2 264.1 256 264 C263.7 263.7 268.4 264.7 274.7 269.2 C275.9 270 277.1 270.9 278.4 271.8 C288.9 282.6 289.6 295.9 287.2 310.3 C287 310.9 286.8 311.5 286.7 312.2 C288.3 312.5 290 312.8 291.7 313.2 C291.7 314.2 291.7 315.2 291.7 316.2 C292.4 316.4 293.1 316.6 293.8 316.9 C300 319.7 303.3 323 305.2 329.7 C306.7 338 306.5 347.6 302.7 355.2 C302.4 355.4 302.4 355.4 300.7 356.2 C300.3 357.1 299.9 357.9 299.4 358.8 C294.5 368.4 285.5 375 275.7 379.2 C275 379.2 274.4 379.2 273.7 379.2 C273.4 380.2 273 381.2 272.7 382.2 C271 383.9 269.4 385.5 267.7 387.2 C267 388.1 266.2 389 265.5 390 C263.7 392.2 263.7 392.2 261.7 392.2 C261.7 392.8 261.7 393.5 261.7 394.2 C249.6 403.8 234.4 404.6 219.6 404.4 C218.3 404.4 217 404.4 215.7 404.4 C202.8 404.3 189.9 404 177.7 399.2 C172.7 397.6 167.8 396.2 162.7 395.2 C156.1 394 150.2 391.3 144.1 388.6 C140 386.9 135.9 385.6 131.7 384.2 C131.7 383.5 131.7 382.9 131.7 382.2 C130.9 381.9 130.1 381.7 129.2 381.4 C126.7 380.2 126.7 380.2 125.7 377.2 C124.9 376.9 124.2 376.6 123.4 376.3 C120 374.9 118.9 373.1 116.7 370.2 C115.9 369.5 115.1 368.8 114.2 368.1 C110.2 363.5 106.7 357.4 106.7 351.2 C106 351.6 105.3 352.1 104.6 352.5 C101.4 354.4 98.1 355.8 94.7 357.2 C90.7 359.2 90.7 359.2 87.7 362.2 C86.7 362.4 85.6 362.5 84.6 362.7 C83.6 362.9 82.7 363 81.7 363.2 C81.4 364.2 81 365.2 80.7 366.2 C77.8 367.4 77.8 367.4 74 368.6 C68.7 370.2 63.5 372 58.4 373.9 C52.7 376 47.7 376.9 41.7 377.2 C41.7 377.8 41.7 378.5 41.7 379.2 C39.3 379.7 36.9 380.2 34.4 380.6 C33.1 380.9 31.7 381.2 30.4 381.4 C3.2 385.8 -25.9 384.6 -52.3 377.2 C-53.5 376.9 -54.7 376.5 -56 376.2 C-62.8 374.4 -69.2 372.2 -75.6 369.3 C-78.5 368.1 -81.4 367.1 -84.3 366.2 C-84.3 365.5 -84.3 364.9 -84.3 364.2 C-87 363.5 -89.6 362.9 -92.3 362.2 C-92.3 361.5 -92.3 360.9 -92.3 360.2 C-93 360 -93.7 359.7 -94.4 359.5 C-98.1 357.9 -101 355.5 -104.3 353.2 C-107.3 351.9 -107.3 351.9 -109.3 351.2 C-109.3 350.5 -109.3 349.9 -109.3 349.2 C-110.3 349.2 -111.3 349.2 -112.3 349.2 C-112.4 350.1 -112.5 351.1 -112.6 352.1 C-114.5 362.9 -119.3 371.9 -129.3 377.2 C-129.6 377.8 -130 378.5 -130.3 379.2 C-131 379.2 -131.6 379.2 -132.3 379.2 C-132.3 379.8 -132.3 380.5 -132.3 381.2 C-140.1 384.2 -140.1 384.2 -142.3 384.2 C-142.3 384.8 -142.3 385.5 -142.3 386.2 C-147.7 388.9 -152.2 390.7 -158.3 391.2 C-158.3 391.8 -158.3 392.5 -158.3 393.2 C-183.2 405.7 -235 410.8 -260.3 399.2 C-260.3 398.5 -260.3 397.9 -260.3 397.2 C-260.7 397.1 -260.7 397.1 -262.5 396.5 C-265.9 394.9 -267.7 393 -270.1 390.2 C-270.9 389.3 -271.7 388.4 -272.5 387.5 C-274.3 385.2 -274.3 385.2 -274.3 383.2 C-274.8 383.1 -274.8 383.1 -277.1 382.4 C-280.3 381.2 -280.3 381.2 -283.3 377.2 C-285.5 376 -285.5 376 -287.9 375 C-292.3 373.2 -292.3 373.2 -294.3 372.2 C-294.3 371.5 -294.3 370.9 -294.3 370.2 C-295.3 370.2 -296.3 370.2 -297.3 370.2 C-298.9 368.3 -298.9 368.3 -300.5 365.8 C-301 365 -301.6 364.2 -302.1 363.4 C-303.3 361.2 -303.3 361.2 -303.3 359.2 C-304 359.2 -304.6 359.2 -305.3 359.2 C-306 357.2 -306.7 355.2 -307.3 353.2 C-307.6 352.4 -307.6 352.4 -308.9 348.6 C-311.8 339 -311.5 329.8 -306.3 321.2 C-298 313.2 -298 313.2 -292.3 313.2 C-292.3 312.5 -292.4 311.7 -292.4 311 C-292.5 307.6 -292.6 304.3 -292.6 300.9 C-292.7 299.8 -292.7 298.7 -292.8 297.5 C-292.9 285.6 -289.7 275.8 -280.3 268.2 C-276.7 266.4 -276.7 266.4 -273.3 265.2 C-272.5 264.8 -271.7 264.4 -270.9 264 C-267.1 262.8 -263.3 263.1 -259.3 263.2 C-259.5 262.9 -259.5 262.9 -260.2 261.2 C-261.5 257.7 -262 254.4 -262.5 250.7 C-262.7 249.3 -262.9 247.8 -263.1 246.3 C-263.3 244.8 -263.5 243.2 -263.8 241.6 C-264.2 238.4 -264.6 235.3 -265.1 232.1 C-265.3 230.6 -265.5 229 -265.7 227.4 C-266.3 223 -267 218.6 -267.7 214.2 C-269.9 200.5 -271.7 186.6 -262.5 174.9 C-255 167.9 -246.3 166 -236.3 167.2 C-230.3 169.5 -225.9 172.8 -221.3 177.2 C-221.3 177.8 -221.3 178.5 -221.3 179.2 C-220.7 179.5 -220.7 179.5 -217.3 181.2 C-213.4 186.8 -211.6 193.3 -210.1 199.9 C-209.2 203.6 -208 207.2 -206.8 210.9 C-203.6 220.3 -202 229.3 -201.3 239.2 C-200.7 239.2 -200 239.2 -199.3 239.2 C-198.3 243.1 -198.2 246.2 -198.3 250.2 C-197.5 249.9 -196.6 249.5 -195.8 249.2 C-192.1 248.1 -189.1 248 -185.3 248.2 C-185.3 246.5 -185.3 244.9 -185.3 243.2 C-186 243.2 -186.6 243.2 -187.3 243.2 C-188 240.1 -188.6 237 -189.2 233.9 C-189.3 233.5 -189.3 233.5 -189.8 231.4 C-195.4 204 -193 174.6 -189.3 147.2 C-188.7 147.2 -188 147.2 -187.3 147.2 C-187.2 146.1 -187.1 145 -187 143.8 C-186 137.2 -184.3 131.2 -181.3 125.2 C-181 123.9 -180.7 122.7 -180.4 121.4 C-179.3 117 -177.6 113.6 -175.4 109.6 C-173.4 106 -171.4 102.5 -169.8 98.7 C-168.2 95 -166.3 91.7 -164.2 88.2 C-163.6 87.1 -162.9 86 -162.2 84.8 C-160.3 82.2 -160.3 82.2 -158.3 82.2 C-158.1 81.5 -157.8 80.8 -157.6 80 C-155.2 74.7 -151.1 70.6 -147.3 66.2 C-146.5 65.2 -145.7 64.3 -144.9 63.3 C-144.1 62.4 -143.3 61.5 -142.5 60.6 C-142.1 60.2 -142.1 60.2 -140.4 58.1 C-138.3 56.2 -138.3 56.2 -134.3 55.2 C-133.7 53.9 -133 52.5 -132.3 51.2 C-129.5 47.1 -126.4 44.9 -122.3 42.2 C-120.3 40.6 -118.3 39 -116.2 37.4 C-99.1 24.2 -99.1 24.2 -92.3 24.2 C-92 23.2 -91.7 22.2 -91.3 21.2 C-78.5 13.4 -62.7 9.5 -48.3 6.2 C-46.9 5.8 -45.5 5.5 -44.1 5.1 C-40.1 4.1 -36.5 4 -32.3 4.2 C-32.3 3.5 -32.3 2.9 -32.3 2.2 C-21.5 0.4 -11 -0.1 0 0 Z " fill="#F4D44F" transform="translate(326.3125,112.8125)"/>
<path d="M0 0 C8.9 -0.7 14.4 3.2 20.5 9.4 C22.9 12.5 24.2 15.7 25.5 19.4 C26.1 20.9 26.7 22.4 27.2 23.9 C30.9 33.6 33.6 43.2 35.7 53.4 C36.4 56.7 37.2 59.8 38.1 63 C40.4 71.9 41.1 81.1 42.1 90.1 C43.8 104 45.8 117.7 48 131.5 C52.9 161.6 52.9 161.6 49.5 168.4 C53.5 166.4 53.5 166.4 54.5 163.4 C55.5 163.4 56.5 163.4 57.5 163.4 C57.9 164.1 58.2 164.7 58.5 165.4 C59.8 165.7 61.2 166.1 62.5 166.4 C62.5 165.1 62.5 163.8 62.5 162.4 C61.5 162.1 60.5 161.8 59.5 161.4 C56.2 156.4 55.7 151 55 145.1 C54.8 144.1 54.7 143.2 54.6 142.2 C54.2 139.3 53.9 136.3 53.5 133.4 C53.4 132.6 53.3 131.7 53.2 130.8 C52.8 127.2 52.4 123.6 52 119.9 C51.7 117.7 51.4 115.5 51 113.3 C50.5 110.3 50.4 107.5 50.5 104.5 C50.5 103.6 50.5 102.6 50.5 101.6 C50.5 100.9 50.5 100.2 50.5 99.4 C49.9 99.4 49.2 99.4 48.5 99.4 C48.4 96.4 48.4 96.4 47.5 81.4 C51.1 80.5 53.7 80.3 57.3 80.4 C58.3 80.4 59.2 80.4 60.3 80.4 C61 80.4 61.8 80.4 62.5 80.4 C62.5 81.1 62.5 81.7 62.5 82.4 C64.5 82.7 66.5 83.1 68.5 83.4 C68.5 84.1 68.5 84.7 68.5 85.4 C69.8 86.1 71.2 86.7 72.5 87.4 C76.5 92.7 76.5 92.7 76.5 95.4 C77.2 95.4 77.8 95.4 78.5 95.4 C81.4 100.9 82.6 106.6 83.9 112.6 C84.5 115.4 84.5 115.4 85.5 117.4 C86.4 122.7 87 127.9 87.7 133.2 C87.8 134.7 88 136.2 88.2 137.7 C88.4 139.1 88.6 140.5 88.8 142 C88.9 142.6 88.9 142.6 89.3 145.9 C89.6 151 88.5 154.8 86.5 159.4 C91.4 157.7 91.4 157.7 92.5 155.4 C93.8 156.1 95.2 156.7 96.5 157.4 C97.5 157.7 98.5 158.1 99.5 158.4 C96.8 151.7 96.8 151.7 94.5 149.4 C93.3 142.2 93.4 134.7 93.5 127.4 C92.9 127.4 92.2 127.4 91.5 127.4 C86.7 101.4 86.7 101.4 90.3 93.7 C96 89.7 102.4 90.5 108.8 92.4 C115.1 97.1 119 101.9 120.7 109.6 C121.5 112.4 121.5 112.4 123.5 116.6 C132.2 135.8 132.2 168.5 122.6 187.1 C107.1 211.6 68.9 217.8 42.7 221.8 C40.5 222.1 38.4 222.4 36.2 222.9 C29.8 224.1 23.1 223.7 16.5 223.8 C15 223.8 13.5 223.9 11.9 223.9 C-1.3 224 -13.5 221.8 -22.5 211.4 C-23.4 210 -24.3 208.6 -25.2 207.1 C-27.5 203.4 -27.5 203.4 -31.5 201.4 C-31.5 200.8 -31.5 200.1 -31.5 199.4 C-32.8 199.1 -34.1 198.8 -35.4 198.4 C-46.6 194.7 -53.2 184.8 -57.5 174.4 C-59.3 167.1 -60.3 157.7 -55.5 151.4 C-51.2 147.1 -48.5 145.1 -42.5 144.4 C-42.2 145.2 -42 145.9 -41.8 146.7 C-39.5 153.8 -36.7 160.6 -33.5 167.4 C-33.1 168.4 -32.6 169.3 -32.2 170.3 C-31.8 171.2 -31.4 172.1 -31 173 C-30.6 173.9 -30.3 174.7 -29.9 175.5 C-28 178 -26.5 178.1 -23.5 178.4 C-25.4 172.4 -27.6 167 -30.5 161.4 C-31.5 158.8 -32.5 156.1 -33.5 153.4 C-34.1 151.8 -34.8 150.2 -35.5 148.7 C-39.1 139.4 -40.8 130.9 -40.9 121 C-40.9 120.2 -41 119.3 -41 118.4 C-40.9 109.1 -36.2 104.4 -29.5 98.4 C-23.6 95.1 -18 94.3 -11.5 96.4 C-10.6 98.8 -10.6 98.8 -10 102 C-9.7 103.1 -9.5 104.3 -9.2 105.5 C-9 106.8 -8.7 108.1 -8.5 109.4 C-8.3 110.1 -8.3 110.1 -7.6 113.6 C-5.3 125.5 -5.3 125.5 -5.5 131.4 C-4.8 131.4 -4.2 131.4 -3.5 131.4 C-3.4 131.8 -3.4 131.8 -3.1 133.6 C-2.9 134.5 -2.7 135.4 -2.5 136.4 C-2.4 137.3 -2.2 138.2 -2 139.1 C-1.5 141.4 -1.5 141.4 -0.5 142.4 C0 145 0.5 147.6 0.9 150.2 C1.5 153.4 2.3 156.5 3.2 159.7 C4.8 166.1 5.5 171.3 2.5 177.4 C4.2 177.4 5.8 177.4 7.5 177.4 C7.9 175.8 8.2 174.1 8.5 172.4 C9.3 172.7 10.1 173 10.8 173.4 C12.7 174.1 14.6 174.8 16.5 175.4 C16.5 174.1 16.5 172.8 16.5 171.4 C15.7 171.2 15 171 14.2 170.8 C10.4 168.8 10.4 166.8 9.5 162.7 C9.2 161.2 8.9 159.8 8.6 158.3 C8.2 156.7 7.9 155.1 7.5 153.4 C6.7 149.8 6 146.2 5.2 142.7 C4.9 141.7 4.7 140.8 4.5 139.8 C3.1 133.7 1.4 127.7 -0.5 121.7 C-3.9 110.7 -5.9 99.6 -7.9 88.3 C-8.4 85.7 -8.9 83.1 -9.5 80.5 C-10.7 74.4 -11.6 68.2 -12.5 62.1 C-12.9 59.8 -13.2 57.5 -13.6 55.2 C-13.7 54.2 -13.9 53.2 -14 52.2 C-14.3 50.4 -14.6 48.6 -15 46.7 C-17.7 33.4 -19.7 14.9 -10.6 4 C-6.9 1 -4.6 0.8 0 0 Z " fill="#F0D150" transform="translate(81.47265625,286.5859375)"/>
<path d="M0 0 C9.9 10.4 4.9 31.5 3 44.1 C2.7 44.8 2.3 45.4 2 46.1 C1.5 49 1.1 51.9 0.7 54.8 C-0.5 63.4 -2 71.9 -3.6 80.4 C-4.6 86.1 -5.6 91.8 -6.4 97.5 C-7 100.1 -7 100.1 -8.4 103.9 C-10 108.2 -11.1 112.4 -12 116.9 C-13.1 122 -14.2 127 -15.6 132 C-17.1 137.3 -18.1 142.7 -19 148.1 C-19.7 148.1 -20.3 148.1 -21 148.1 C-21.1 149.6 -21.2 151.1 -21.3 152.7 C-21.8 157.3 -22.7 161 -25 165.1 C-26 165.4 -27 165.8 -28 166.1 C-28 167.4 -28 168.7 -28 170.1 C-24 169.1 -24 169.1 -23 167.1 C-22 167.1 -21 167.1 -20 167.1 C-19.3 168.4 -18.7 169.7 -18 171.1 C-17 171.4 -16 171.8 -15 172.1 C-15 170.8 -15 169.5 -15 168.1 C-15.7 168.1 -16.3 168.1 -17 168.1 C-17.2 162.2 -16.5 157.3 -15 151.6 C-14.8 150.9 -14.8 150.9 -13.9 147.3 C-13.6 146.3 -13.3 145.2 -13 144.1 C-12.3 144.1 -11.7 144.1 -11 144.1 C-11 143.8 -11 143.8 -10.9 142 C-10.5 134.6 -9.1 127.8 -7.2 120.7 C-5.5 114.3 -4.1 107.8 -2.7 101.3 C-1.1 94.3 -1.1 94.3 0 92.1 C6.3 90 11.4 90.7 17 94.1 C17.8 94.5 18.7 94.9 19.5 95.3 C28.4 101.7 29.3 109.6 29.2 119.9 C28.8 128.1 26.7 134.8 23 142.1 C22.6 143.8 22.3 145.5 22 147.2 C21 152.1 21 152.1 18 156.1 C17.8 156.8 17.8 156.8 16.5 160.1 C15 164.1 15 164.1 12 168.1 C12.3 170.8 12.3 170.8 13 173.1 C20.2 171.3 22.3 162.6 25 156.1 C27 150.5 28.5 144.8 30 139.1 C36.6 140.1 41.9 143.5 46.1 148.7 C48.9 158.9 46.7 168.8 42 178.1 C41.3 178.1 40.7 178.1 40 178.1 C39.3 179.4 38.7 180.7 38 182.1 C32.9 187.1 27.9 190.4 21.6 193.7 C15.8 196.9 12.6 200.7 9 206.1 C-1.7 218.3 -16.3 218.5 -31.6 218.4 C-32.8 218.4 -34 218.4 -35.2 218.4 C-45.7 218.3 -55.7 217 -66 215.1 C-68.3 214.8 -70.6 214.4 -72.9 214.1 C-77.1 213.4 -80.2 212.1 -84 210.1 C-86.4 209.6 -88.9 209.1 -91.3 208.7 C-95.8 207.7 -99.8 205.9 -104 204.1 C-106.7 203.1 -109.3 202.1 -112 201.1 C-112 200.4 -112 199.8 -112 199.1 C-112.8 198.9 -113.6 198.7 -114.4 198.5 C-131.4 191.7 -136.9 176.6 -141 160.1 C-141.9 141.2 -140.7 123.5 -133 106.1 C-132.7 104.7 -132.3 103.3 -132 101.8 C-130.1 94.7 -126 90 -119.3 86.8 C-113.6 85.6 -108.1 84.8 -102.9 88 C-95.8 95.8 -101 110.9 -103 120.1 C-103.7 120.1 -104.3 120.1 -105 120.1 C-105 120.7 -105 120.7 -105.2 123.5 C-105.3 125 -105.3 126.5 -105.4 128.1 C-105.5 129.6 -105.6 131.1 -105.7 132.6 C-106.3 141.3 -106.3 141.3 -107 145.1 C-108 145.4 -109 145.8 -110 146.1 C-111.2 149.7 -111.2 149.7 -112 153.1 C-110.3 153.1 -108.7 153.1 -107 153.1 C-107 152.1 -107 151.1 -107 150.1 C-106 150.1 -105 150.1 -104 150.1 C-103.3 151.7 -102.7 153.4 -102 155.1 C-101 155.1 -100 155.1 -99 155.1 C-99 153.4 -99 151.8 -99 150.1 C-99.7 150.1 -100.3 150.1 -101 150.1 C-101.2 138.2 -100 127.6 -97 116 C-95.9 111.6 -95.1 107.1 -94.4 102.6 C-93.9 99.6 -93.1 96.9 -92 94.1 C-91.3 94.1 -90.7 94.1 -90 94.1 C-90 93.7 -90 93.7 -89.8 91.5 C-88.8 87.2 -86.8 84.5 -84 81.1 C-83.3 81.1 -82.7 81.1 -82 81.1 C-82 80.4 -82 79.8 -82 79.1 C-76 75.1 -66.7 74.9 -60 77.1 C-59.8 84.6 -60.4 91.8 -61.4 99.2 C-61.5 100.3 -61.6 101.4 -61.8 102.6 C-62.1 104.8 -62.3 107 -62.6 109.2 C-62.9 111.6 -63.2 114 -63.5 116.4 C-64.4 124.9 -65.8 133.4 -67.4 141.8 C-67.6 143 -67.8 144.1 -68 145.3 C-68.2 146.4 -68.4 147.5 -68.6 148.6 C-68.8 149.5 -68.9 150.5 -69.1 151.5 C-70.2 154.6 -71.7 155.9 -74 158.1 C-74.3 159.1 -74.7 160.1 -75 161.1 C-74.3 160.7 -73.5 160.4 -72.7 160 C-70 159.1 -70 159.1 -66 160.1 C-65.7 161.1 -65.3 162.1 -65 163.1 C-64 163.1 -63 163.1 -62 163.1 C-62 161.8 -62 160.5 -62 159.1 C-62.7 158.8 -63.3 158.4 -64 158.1 C-63.3 147.7 -61.6 137.6 -59.8 127.4 C-58.5 120.1 -57.7 112.8 -57.2 105.4 C-56.9 100.6 -56.3 95.9 -55.6 91.2 C-55.4 90.3 -55.3 89.4 -55.2 88.5 C-54.7 84.8 -54 81.2 -53 77.6 C-52 74.1 -51.5 70.8 -51.2 67.2 C-50 56.8 -47.9 46.7 -45.2 36.6 C-44.9 35.4 -44.5 34.1 -44.2 32.9 C-40.5 19.3 -36.2 8 -26 -1.9 C-25.3 -2.6 -24.7 -3.2 -24 -3.9 C-14.8 -6.2 -7.5 -6.1 0 0 Z " fill="#F0D250" transform="translate(577.99609375,291.90234375)"/>
<path d="M0 0 C1.5 0 3 0 4.5 0 C15.4 0 15.4 0 17.7 1.2 C20.4 1.6 23.1 1.9 25.8 2.2 C27.3 2.4 28.7 2.6 30.3 2.8 C31.4 2.9 32.5 3.1 33.7 3.2 C33.7 3.8 33.7 4.5 33.7 5.2 C34.2 5.2 34.2 5.2 36.8 5 C47 5.4 56.4 8.1 65.7 12.2 C65.7 12.8 65.7 13.5 65.7 14.2 C67.2 14.6 68.7 15.1 70.2 15.5 C74.8 16.9 79.2 18.5 83.7 20.2 C83.7 20.8 83.7 21.5 83.7 22.2 C84.5 22.4 85.4 22.7 86.2 23 C89.9 24.3 93.4 25.8 96.9 27.6 C98.1 28.1 99.3 28.7 100.5 29.3 C103.7 31.2 103.7 31.2 106.7 35.2 C109 36.5 111.3 37.9 113.7 39.2 C116 41.2 118.4 43.2 120.7 45.2 C121.6 45.7 122.4 46.2 123.3 46.7 C126.5 48.7 128.3 51.3 130.7 54.2 C131.8 55.1 132.9 56.1 134.1 57.1 C138.8 61.2 143.1 65.5 146.3 70.9 C147.7 73.2 147.7 73.2 150 74.9 C153.8 78.1 156.1 82 158.7 86.2 C159.3 87.1 159.9 88 160.5 88.9 C161.9 91.6 162.3 94.1 162.7 97.2 C163.3 97.2 164 97.2 164.7 97.2 C166.7 100.2 166.7 100.2 166.7 103.2 C167.3 103.2 168 103.2 168.7 103.2 C169 104.2 169.4 105.2 169.8 106.2 C171.3 110.4 173.2 114.3 175.1 118.3 C191.8 153.7 190.9 193 186.7 231.2 C186 231.2 185.4 231.2 184.7 231.2 C184.2 234 184.2 234 181.7 248.2 C185.6 248.5 189.6 248.8 193.7 249.2 C193.8 247.3 193.9 245.4 194 243.5 C194.5 236.5 196 230 197.7 223.2 C198 221.5 198.4 219.9 198.8 218.2 C199.5 214.9 200.4 212.2 201.7 209.2 C201.9 208.4 201.9 208.4 203.1 204.4 C204.5 199.4 206.5 194.9 208.7 190.2 C209.2 189 209.7 187.8 210.2 186.5 C214.3 177.4 220.7 169.8 230.7 167.2 C242.2 165.9 250.1 167.8 257.9 176.5 C269.1 193.3 261.3 220.7 258.7 239.2 C258 239.2 257.4 239.2 256.7 239.2 C256.6 240.2 256.6 241.3 256.5 242.4 C256.1 249.9 255.6 256.9 253.7 264.2 C254.4 264.1 255.2 264.1 256 264 C263.7 263.7 268.4 264.7 274.7 269.2 C275.9 270 277.1 270.9 278.4 271.8 C288.9 282.6 289.6 295.9 287.2 310.3 C287 310.9 286.8 311.5 286.7 312.2 C288.3 312.5 290 312.8 291.7 313.2 C291.7 314.2 291.7 315.2 291.7 316.2 C292.4 316.4 293.1 316.6 293.8 316.9 C300 319.7 303.3 323 305.2 329.7 C306.7 338 306.5 347.6 302.7 355.2 C302.4 355.4 302.4 355.4 300.7 356.2 C300.3 357.1 299.9 357.9 299.4 358.8 C294.5 368.4 285.5 375 275.7 379.2 C275 379.2 274.4 379.2 273.7 379.2 C273.4 380.2 273 381.2 272.7 382.2 C271 383.9 269.4 385.5 267.7 387.2 C267 388.1 266.2 389 265.5 390 C263.7 392.2 263.7 392.2 261.7 392.2 C261.7 392.8 261.7 393.5 261.7 394.2 C249.6 403.8 234.4 404.6 219.6 404.4 C218.3 404.4 217 404.4 215.7 404.4 C202.8 404.3 189.9 404 177.7 399.2 C172.7 397.6 167.8 396.2 162.7 395.2 C156.1 394 150.2 391.3 144.1 388.6 C140 386.9 135.9 385.6 131.7 384.2 C131.7 383.5 131.7 382.9 131.7 382.2 C130.9 381.9 130.1 381.7 129.2 381.4 C126.7 380.2 126.7 380.2 125.7 377.2 C124.9 376.9 124.2 376.6 123.4 376.3 C120 374.9 118.9 373.1 116.7 370.2 C115.9 369.5 115.1 368.8 114.2 368.1 C110.2 363.5 106.7 357.4 106.7 351.2 C106 351.6 105.3 352.1 104.6 352.5 C101.4 354.4 98.1 355.8 94.7 357.2 C90.7 359.2 90.7 359.2 87.7 362.2 C86.7 362.4 85.6 362.5 84.6 362.7 C83.6 362.9 82.7 363 81.7 363.2 C81.4 364.2 81 365.2 80.7 366.2 C77.8 367.4 77.8 367.4 74 368.6 C68.7 370.2 63.5 372 58.4 373.9 C52.7 376 47.7 376.9 41.7 377.2 C41.7 377.8 41.7 378.5 41.7 379.2 C39.3 379.7 36.9 380.2 34.4 380.6 C33.1 380.9 31.7 381.2 30.4 381.4 C3.2 385.8 -25.9 384.6 -52.3 377.2 C-53.5 376.9 -54.7 376.5 -56 376.2 C-62.8 374.4 -69.2 372.2 -75.6 369.3 C-78.5 368.1 -81.4 367.1 -84.3 366.2 C-84.3 365.5 -84.3 364.9 -84.3 364.2 C-87 363.5 -89.6 362.9 -92.3 362.2 C-92.3 361.5 -92.3 360.9 -92.3 360.2 C-93 360 -93.7 359.7 -94.4 359.5 C-98.1 357.9 -101 355.5 -104.3 353.2 C-107.3 351.9 -107.3 351.9 -109.3 351.2 C-109.3 350.5 -109.3 349.9 -109.3 349.2 C-110.3 349.2 -111.3 349.2 -112.3 349.2 C-112.4 350.1 -112.5 351.1 -112.6 352.1 C-114.5 362.9 -119.3 371.9 -129.3 377.2 C-129.6 377.8 -130 378.5 -130.3 379.2 C-131 379.2 -131.6 379.2 -132.3 379.2 C-132.3 379.8 -132.3 380.5 -132.3 381.2 C-140.1 384.2 -140.1 384.2 -142.3 384.2 C-142.3 384.8 -142.3 385.5 -142.3 386.2 C-147.7 388.9 -152.2 390.7 -158.3 391.2 C-158.3 391.8 -158.3 392.5 -158.3 393.2 C-183.2 405.7 -235 410.8 -260.3 399.2 C-260.3 398.5 -260.3 397.9 -260.3 397.2 C-260.7 397.1 -260.7 397.1 -262.5 396.5 C-265.9 394.9 -267.7 393 -270.1 390.2 C-270.9 389.3 -271.7 388.4 -272.5 387.5 C-274.3 385.2 -274.3 385.2 -274.3 383.2 C-274.8 383.1 -274.8 383.1 -277.1 382.4 C-280.3 381.2 -280.3 381.2 -283.3 377.2 C-285.5 376 -285.5 376 -287.9 375 C-292.3 373.2 -292.3 373.2 -294.3 372.2 C-294.3 371.5 -294.3 370.9 -294.3 370.2 C-295.3 370.2 -296.3 370.2 -297.3 370.2 C-298.9 368.3 -298.9 368.3 -300.5 365.8 C-301 365 -301.6 364.2 -302.1 363.4 C-303.3 361.2 -303.3 361.2 -303.3 359.2 C-304 359.2 -304.6 359.2 -305.3 359.2 C-306 357.2 -306.7 355.2 -307.3 353.2 C-307.6 352.4 -307.6 352.4 -308.9 348.6 C-311.8 339 -311.5 329.8 -306.3 321.2 C-298 313.2 -298 313.2 -292.3 313.2 C-292.3 312.5 -292.4 311.7 -292.4 311 C-292.5 307.6 -292.6 304.3 -292.6 300.9 C-292.7 299.8 -292.7 298.7 -292.8 297.5 C-292.9 285.6 -289.7 275.8 -280.3 268.2 C-276.7 266.4 -276.7 266.4 -273.3 265.2 C-272.5 264.8 -271.7 264.4 -270.9 264 C-267.1 262.8 -263.3 263.1 -259.3 263.2 C-259.5 262.9 -259.5 262.9 -260.2 261.2 C-261.5 257.7 -262 254.4 -262.5 250.7 C-262.7 249.3 -262.9 247.8 -263.1 246.3 C-263.3 244.8 -263.5 243.2 -263.8 241.6 C-264.2 238.4 -264.6 235.3 -265.1 232.1 C-265.3 230.6 -265.5 229 -265.7 227.4 C-266.3 223 -267 218.6 -267.7 214.2 C-269.9 200.5 -271.7 186.6 -262.5 174.9 C-255 167.9 -246.3 166 -236.3 167.2 C-230.3 169.5 -225.9 172.8 -221.3 177.2 C-221.3 177.8 -221.3 178.5 -221.3 179.2 C-220.7 179.5 -220.7 179.5 -217.3 181.2 C-213.4 186.8 -211.6 193.3 -210.1 199.9 C-209.2 203.6 -208 207.2 -206.8 210.9 C-203.6 220.3 -202 229.3 -201.3 239.2 C-200.7 239.2 -200 239.2 -199.3 239.2 C-198.3 243.1 -198.2 246.2 -198.3 250.2 C-197.5 249.9 -196.6 249.5 -195.8 249.2 C-192.1 248.1 -189.1 248 -185.3 248.2 C-185.3 246.5 -185.3 244.9 -185.3 243.2 C-186 243.2 -186.6 243.2 -187.3 243.2 C-188 240.1 -188.6 237 -189.2 233.9 C-189.3 233.5 -189.3 233.5 -189.8 231.4 C-195.4 204 -193 174.6 -189.3 147.2 C-188.7 147.2 -188 147.2 -187.3 147.2 C-187.2 146.1 -187.1 145 -187 143.8 C-186 137.2 -184.3 131.2 -181.3 125.2 C-181 123.9 -180.7 122.7 -180.4 121.4 C-179.3 117 -177.6 113.6 -175.4 109.6 C-173.4 106 -171.4 102.5 -169.8 98.7 C-168.2 95 -166.3 91.7 -164.2 88.2 C-163.6 87.1 -162.9 86 -162.2 84.8 C-160.3 82.2 -160.3 82.2 -158.3 82.2 C-158.1 81.5 -157.8 80.8 -157.6 80 C-155.2 74.7 -151.1 70.6 -147.3 66.2 C-146.5 65.2 -145.7 64.3 -144.9 63.3 C-144.1 62.4 -143.3 61.5 -142.5 60.6 C-142.1 60.2 -142.1 60.2 -140.4 58.1 C-138.3 56.2 -138.3 56.2 -134.3 55.2 C-133.7 53.9 -133 52.5 -132.3 51.2 C-129.5 47.1 -126.4 44.9 -122.3 42.2 C-120.3 40.6 -118.3 39 -116.2 37.4 C-99.1 24.2 -99.1 24.2 -92.3 24.2 C-92 23.2 -91.7 22.2 -91.3 21.2 C-78.5 13.4 -62.7 9.5 -48.3 6.2 C-46.9 5.8 -45.5 5.5 -44.1 5.1 C-40.1 4.1 -36.5 4 -32.3 4.2 C-32.3 3.5 -32.3 2.9 -32.3 2.2 C-21.5 0.4 -11 -0.1 0 0 Z M-50.3 15.2 C-52.2 15.5 -54.1 15.8 -56 16 C-62.1 16.9 -66 19 -71.3 22.2 C-73.6 22.9 -76 23.5 -78.3 24.2 C-85.8 27.6 -85.8 27.6 -88.3 30.2 C-89.4 30.6 -90.5 30.9 -91.7 31.3 C-100.7 35 -108.4 41 -115.8 47.2 C-117.6 48.6 -119.4 50 -121.2 51.4 C-122.1 52.1 -123 52.8 -123.9 53.6 C-124.4 53.9 -124.4 53.9 -126.5 55.5 C-128.3 57.2 -128.3 57.2 -128.3 59.2 C-129.6 59.8 -131 60.5 -132.3 61.2 C-134.7 63.8 -137 66.5 -139.3 69.2 C-140.6 70.6 -141.9 72.1 -143.2 73.6 C-146.3 77.2 -146.3 77.2 -146.3 79.2 C-147 79.2 -147.6 79.2 -148.3 79.2 C-154.7 87.6 -159.9 96.6 -164.3 106.2 C-165 107.5 -165.6 108.8 -166.3 110.2 C-166.3 111.2 -166.3 112.2 -166.3 113.2 C-166.8 113.4 -166.8 113.4 -169.3 114.2 C-170.5 116.8 -170.5 116.8 -171.5 120.1 C-171.8 121.1 -172.2 122.2 -172.5 123.3 C-173.3 126.2 -173.3 126.2 -173.3 129.2 C-174 129.2 -174.6 129.2 -175.3 129.2 C-182.9 150.2 -195 193.8 -184.3 215.2 C-184 218 -183.8 220.9 -183.5 223.7 C-182.7 231 -181.4 236.6 -178.3 243.2 C-177.8 244.7 -177.3 246.2 -176.8 247.8 C-175.3 251.2 -175.3 251.2 -172.3 252.2 C-172 253.2 -171.7 254.2 -171.3 255.2 C-170 255.8 -168.7 256.5 -167.3 257.2 C-165.6 259.8 -163.9 262.5 -162.3 265.2 C-158.3 263.2 -158.3 263.2 -155 261.1 C-149 258 -141.8 258.2 -135.3 259.2 C-133.1 261.1 -133.1 261.1 -131.3 263.2 C-130.2 264 -129.1 264.8 -127.9 265.7 C-123 269.8 -120.9 275.5 -118.3 281.2 C-117.7 282.5 -117 283.8 -116.3 285.2 C-115.8 287.7 -115.3 290.3 -114.8 292.8 C-114 297.2 -113.2 301.5 -112.2 305.8 C-110.6 313.8 -111.1 322.3 -111.3 330.5 C-111.2 341.4 -111.2 341.4 -106.5 345 C-101.8 347.4 -97.3 349.5 -92.3 351.2 C-92.3 351.8 -92.3 352.5 -92.3 353.2 C-90 354.6 -90 354.6 -86.8 356.1 C-85.8 356.6 -84.8 357.1 -83.7 357.7 C-80 359.3 -76.2 360.8 -72.3 362.2 C-71.1 362.7 -69.8 363.3 -68.5 363.8 C-56.2 369.1 -43.8 371.5 -30.6 373.7 C-28.3 374.2 -28.3 374.2 -26.3 375.2 C-23.2 375.3 -20.2 375.4 -17.1 375.4 C-16.2 375.4 -15.3 375.4 -14.3 375.4 C-12.3 375.4 -10.3 375.4 -8.4 375.4 C-5.4 375.4 -2.4 375.5 0.6 375.5 C35.9 375.7 68.7 364.5 98.7 346.2 C99.7 345.6 100.8 345.1 101.8 344.5 C105.5 341.5 105.4 340.2 105.4 335.5 C105.4 334.2 105.5 332.9 105.5 331.5 C105.5 330.1 105.4 328.7 105.4 327.3 C105.5 314.7 105.7 302.2 109.8 290.1 C111 286.5 112 283 112.7 279.2 C113.3 279.2 114 279.2 114.7 279.2 C114.9 278.3 115.2 277.5 115.4 276.6 C118.2 269 123.2 263.5 130.4 259.8 C137.2 258.5 144.3 258.1 150.7 261.2 C152 262.5 153.4 263.9 154.7 265.2 C155.7 265.2 156.7 265.2 157.7 265.2 C159 263.1 160.4 260.9 161.6 258.7 C163.7 256.1 165.2 255.3 168.2 253.7 C174.4 249.7 175.2 244.1 176.6 237.2 C176.8 236.6 176.8 236.6 177.5 233.7 C180.8 219.5 182 205.7 182 191.1 C182 190.2 182 190.2 182 186.1 C181.8 159.3 181.8 159.3 176.7 147.2 C176.2 145.2 175.7 143.2 175.2 141.2 C174.2 137.2 173.1 133.2 171.7 129.2 C171 129.2 170.4 129.2 169.7 129.2 C169.6 128.3 169.5 127.5 169.4 126.6 C168.6 122.8 167.3 119.5 165.8 115.9 C165.2 114.6 164.7 113.4 164.2 112.1 C162.7 109.2 162.7 109.2 160.7 108.2 C159.9 106.3 159.1 104.4 158.4 102.4 C156.5 97.6 154.6 94.7 150.7 91.2 C150.4 89.9 150 88.5 149.7 87.2 C149 86.9 148.4 86.5 147.7 86.2 C147.2 85.2 146.7 84.2 146.1 83.2 C143.5 78.8 140.4 75.3 136.9 71.5 C135.2 69.8 133.6 67.9 132.1 66 C129.6 63 126.8 60.6 123.9 58.1 C121.6 56.1 119.3 54 117.1 52 C113.8 49.1 110.4 46.6 106.7 44.2 C106.2 43.7 106.2 43.7 103.7 41.2 C96.1 36.2 96.1 36.2 93.7 36.2 C93.7 35.5 93.7 34.9 93.7 34.2 C67.9 19.4 37.6 9.2 7.8 8.9 C6.9 8.9 6 8.9 5 8.9 C3.1 8.9 1.2 8.9 -0.8 8.9 C-2.7 8.9 -4.6 8.9 -6.6 8.8 C-21.1 8.6 -37.1 8.6 -50.3 15.2 Z M-259.3 182.2 C-263.8 194.9 -261.9 211.5 -258.9 224.5 C-257.4 231.5 -256.8 238.8 -255.9 245.9 C-255 253 -253.8 259.7 -252 266.6 C-251.1 269.9 -250.6 273.3 -250 276.7 C-248.9 282.9 -247.3 288.8 -245.4 294.8 C-243.2 302 -241.3 309.1 -239.7 316.4 C-239.6 316.9 -239.6 316.9 -239.1 319.2 C-238.1 323.5 -237.2 327.8 -236.3 332.1 C-236 333.5 -235.6 334.9 -235.3 336.4 C-235.2 337.1 -235.2 337.1 -234.5 340.3 C-233.1 343.8 -232 344.3 -228.3 345.2 C-228.3 346.5 -228.3 347.8 -228.3 349.2 C-229.2 348.7 -230.2 348.2 -231.1 347.6 C-234.3 346.2 -234.3 346.2 -237.3 347.2 C-237.3 348.5 -237.3 349.8 -237.3 351.2 C-239 351.2 -240.6 351.2 -242.3 351.2 C-242 350.5 -241.7 349.8 -241.3 349.1 C-239.2 342.9 -240.6 337.4 -242.2 331.2 C-243.6 326.2 -244.6 321.3 -245.3 316.2 C-246 314.5 -246.6 312.8 -247.3 311.2 C-247.7 309.2 -248 307.2 -248.3 305.2 C-249 305.2 -249.6 305.2 -250.3 305.2 C-250.3 304.8 -250.3 304.8 -250.4 302.7 C-250.8 296.2 -251.6 290.2 -253.6 283.9 C-254.4 281 -254.9 278.1 -255.3 275.1 C-255.5 274.3 -255.5 274.3 -256.3 270.2 C-263.6 267.8 -269 269.2 -275.3 273.2 C-286 282.4 -286.4 291.7 -285.3 305.2 C-284.4 310 -283 314.5 -281.3 319.2 C-280.9 320.5 -280.5 321.9 -280 323.2 C-276.8 333.6 -276.8 333.6 -273.3 338.2 C-271.2 342.8 -269.6 347.3 -268.3 352.2 C-271.4 351.9 -272.9 351.7 -274.9 349.2 C-280 339.3 -283.8 328.8 -287.3 318.2 C-293.5 318.3 -297.4 321.7 -301.3 326.2 C-306.4 336 -302.9 347 -298.9 356.4 C-297.1 359.6 -295 361.7 -292.3 364.2 C-291.2 365.2 -290.2 366.2 -289.1 367.3 C-284.8 370.6 -281.5 371.8 -276.3 373.2 C-276.3 373.8 -276.3 374.5 -276.3 375.2 C-275.6 375.6 -274.8 376 -274.1 376.4 C-271.3 378.2 -271.3 378.2 -269.5 381.4 C-263.6 391.5 -253.6 396.4 -242.2 397.6 C-237.8 397.8 -233.4 397.8 -228.9 397.7 C-227.5 397.7 -226 397.7 -224.4 397.7 C-215.9 397.6 -207.9 396.8 -199.6 394.9 C-196.4 394.2 -193.2 393.8 -189.9 393.4 C-180 392.1 -170.5 388.9 -161 386 C-158.8 385.3 -156.6 384.7 -154.5 384.1 C-143.9 380.9 -136.4 374.4 -128.3 367.2 C-127.4 366.5 -126.5 365.9 -125.6 365.2 C-111.8 352.6 -115.2 324.3 -117.1 307.6 C-118.2 299.8 -119.7 292.8 -123.1 285.7 C-124.3 283.3 -125 281 -125.7 278.4 C-128.2 271.8 -132.4 267.4 -139.3 265.2 C-145 264.4 -149.7 264.1 -154.6 267.4 C-159.4 277.8 -155.3 290.5 -153.3 301.2 C-152.7 301.2 -152 301.2 -151.3 301.2 C-151.3 302.6 -151.4 304 -151.4 305.4 C-151.3 323.2 -151.3 323.2 -146.3 328.2 C-146 329.5 -145.7 330.8 -145.3 332.2 C-145.7 331.9 -145.7 331.9 -147.7 330.7 C-150.3 329.2 -150.3 329.2 -152.3 329.2 C-153 330.2 -153.6 331.2 -154.3 332.2 C-155.6 332.5 -157 332.8 -158.3 333.2 C-157.8 332.4 -157.3 331.5 -156.8 330.7 C-154.9 326.3 -155.3 323.6 -156 318.9 C-156.2 317.4 -156.4 315.8 -156.6 314.1 C-156.8 313.3 -156.9 312.5 -157 311.7 C-157.5 307.7 -157.9 303.6 -158.2 299.6 C-158.9 293.3 -160 288.1 -162.3 282.2 C-163 279.5 -163.6 276.9 -164.3 274.2 C-164.9 272.5 -165.6 270.8 -166.3 269.2 C-167 269.2 -167.6 269.2 -168.3 269.2 C-168.6 268.3 -168.8 267.4 -169.1 266.4 C-170.4 263.1 -171.5 261.4 -174.3 259.2 C-175 259.2 -175.6 259.2 -176.3 259.2 C-176.3 258.5 -176.3 257.9 -176.3 257.2 C-178.3 256.9 -180.3 256.5 -182.3 256.2 C-182.3 255.5 -182.3 254.9 -182.3 254.2 C-184.1 254.2 -185.8 254.1 -187.6 254.1 C-188 254.1 -188 254.1 -190.5 254.1 C-193.3 254.2 -193.3 254.2 -197.3 255.2 C-197.1 258.2 -197.1 258.2 -196.3 273.2 C-195.7 273.2 -195 273.2 -194.3 273.2 C-194.4 275.7 -194.4 278.2 -194.5 280.7 C-194.3 284.6 -193.6 288.3 -192.8 292.1 C-191.7 298.6 -191.1 305 -190.5 311.5 C-189.9 316.8 -189.2 322 -188.4 327.2 C-188.3 328.1 -188.1 329 -188 329.8 C-187.3 332.2 -187.3 332.2 -184.3 336.2 C-183.7 336.2 -183 336.2 -182.3 336.2 C-182.3 337.5 -182.3 338.8 -182.3 340.2 C-186.3 339.2 -186.3 339.2 -187.3 337.2 C-188.3 337.2 -189.3 337.2 -190.3 337.2 C-191 338.5 -191.6 339.8 -192.3 341.2 C-193.3 341.5 -194.3 341.8 -195.3 342.2 C-195 341.5 -194.6 340.8 -194.3 340.1 C-190.6 329.1 -195.4 314.1 -197.2 302.8 C-198.9 292.2 -200.6 281.6 -201.8 271 C-202.6 264.7 -203.5 258.4 -204.3 252.1 C-204.5 250.9 -204.6 249.6 -204.8 248.3 C-205.6 242.4 -206.5 236.9 -208.3 231.2 C-208.9 228.5 -209.4 225.7 -210 223 C-212.3 212.7 -215.6 203 -219.3 193.2 C-219.7 192.1 -220.1 191.1 -220.5 190 C-223.5 182.6 -229.3 177.8 -236.3 174.2 C-245.7 172.2 -253.2 174.8 -259.3 182.2 Z M216.5 187.4 C212 196.9 208.7 206.7 206.1 216.9 C205.8 218 205.5 219.2 205.2 220.4 C202.4 231.6 200.7 242.9 199.1 254.3 C198.4 259 197.6 263.6 196.7 268.2 C195.5 275 194.6 281.7 194.1 288.5 C193.2 299.8 191.5 310.7 189.4 321.8 C189.1 323 188.9 324.1 188.7 325.2 C188.5 326.3 188.3 327.3 188.1 328.3 C187.7 331.3 187.5 334.1 187.7 337.2 C188.3 337.5 189 337.8 189.7 338.2 C189.7 339.5 189.7 340.8 189.7 342.2 C188.7 342.2 187.7 342.2 186.7 342.2 C186 340.9 185.4 339.5 184.7 338.2 C183.4 338.5 182 338.8 180.7 339.2 C179.4 339.5 178 339.8 176.7 340.2 C177.7 337.2 177.7 337.2 179.7 335.3 C182.1 332.8 182.5 331.1 183.1 327.7 C183.3 326.6 183.5 325.5 183.7 324.4 C183.9 323.3 184.1 322.1 184.3 320.9 C184.4 320.3 184.4 320.3 185 317.4 C186.5 308.7 187.7 300 188.7 291.2 C188.9 289.1 189.2 287.1 189.5 285 C189.8 282.8 190 280.5 190.3 278.3 C190.4 277.3 190.6 276.2 190.7 275.1 C191.5 268.8 191.8 262.6 191.7 256.2 C184.5 253.8 176.4 254.8 169.7 258.2 C169.7 258.8 169.7 259.5 169.7 260.2 C169 260.5 169 260.5 165.7 262.2 C163 266.2 161.7 268.3 161.7 273.2 C161 273.2 160.4 273.2 159.7 273.2 C157.4 279.4 156.1 285.3 155.1 291.9 C154.4 297.2 153.4 302.1 151.7 307.2 C150.6 314.5 150.6 321.8 150.7 329.2 C151.3 329.2 152 329.2 152.7 329.2 C152.7 330.8 152.7 332.5 152.7 334.2 C151.7 334.2 150.7 334.2 149.7 334.2 C149 332.5 148.4 330.9 147.7 329.2 C146.7 329.2 145.7 329.2 144.7 329.2 C144.7 330.2 144.7 331.2 144.7 332.2 C143 332.2 141.4 332.2 139.7 332.2 C140.5 328.8 140.5 328.8 141.7 325.2 C142.7 324.9 143.7 324.5 144.7 324.2 C145.4 320.7 145.4 320.7 145.9 316.1 C146 315.4 146 315.4 146.4 311.7 C146.7 307.5 146.7 303.4 146.7 299.2 C147.3 299.2 148 299.2 148.7 299.2 C153.9 274.9 153.9 274.9 149.8 268 C144.5 263.5 137.8 264.7 131.4 266.2 C122.7 270.8 119.9 278.1 117.7 287.2 C116.9 289.8 116 292.4 115.2 294.9 C108.5 316.4 106.2 343.9 119.5 363.4 C131.6 378.2 131.6 378.2 139.7 378.2 C139.7 378.8 139.7 379.5 139.7 380.2 C140 380.3 140 380.3 141.8 380.9 C146.4 382.6 150.9 384.2 155.2 386.3 C160.1 388.4 164.5 389.2 169.7 390.2 C171 390.8 172.3 391.5 173.7 392.2 C195.2 397.2 234.4 405.3 254.3 391.4 C258.5 387.4 262.2 383.3 265.6 378.6 C269 374.7 273.4 372.4 278 370 C283.5 367.1 287.5 363.9 291.7 359.2 C291.7 358.5 291.7 357.9 291.7 357.2 C292.3 357.2 293 357.2 293.7 357.2 C294.1 355.8 294.6 354.4 295.1 353 C295.9 350.5 296.7 348.1 297.8 345.8 C299.8 340.1 299.3 333.6 297.8 327.9 C293.7 322.7 288.4 318.2 281.7 318.2 C281.4 319.2 281.2 320.2 280.9 321.3 C277.9 332.6 273.5 342 267.7 352.2 C266.4 351.9 265 351.5 263.7 351.2 C264.2 346.7 264.4 345.5 267.7 342.2 C268.7 339.2 269.7 336.2 270.7 333.2 C271.3 332.5 272 331.9 272.7 331.2 C273.2 329.3 273.7 327.5 274.1 325.6 C275.3 320.6 276.9 316 278.7 311.2 C282.1 301 283.1 288.2 276.7 279.2 C274.3 276.9 274.3 276.9 271.7 275.2 C270.7 274.5 269.6 273.7 268.6 273 C263.2 269.6 257.7 269.2 251.7 271.2 C250.7 274 250.7 274 249.8 277.9 C249.5 279.3 249.1 280.8 248.8 282.2 C248.4 283.9 248.1 285.5 247.7 287.2 C247.3 289.1 246.8 290.9 246.4 292.8 C245.3 297.4 244.3 302 243.3 306.7 C242.7 309.1 242.1 311.6 241.5 314 C240.7 318.2 240.7 318.2 240.7 323.2 C240 323.2 239.4 323.2 238.7 323.2 C238 325.7 237.3 328.2 236.7 330.7 C236.5 331.4 236.5 331.4 235.6 334.9 C234.7 339.1 234.5 342.9 234.7 347.2 C235.3 347.2 236 347.2 236.7 347.2 C236.7 348.5 236.7 349.8 236.7 351.2 C232.7 349.2 232.7 349.2 231.7 346.2 C230.7 346.2 229.7 346.2 228.7 346.2 C228.4 346.8 228 347.5 227.7 348.2 C226.4 348.5 225 348.8 223.7 349.2 C223.7 347.9 223.7 346.5 223.7 345.2 C225 344.5 226.3 343.9 227.7 343.2 C230.1 338.2 231.1 332.7 230.7 327.2 C231.3 327.2 232 327.2 232.7 327.2 C232.9 325.9 233.2 324.6 233.4 323.3 C235.2 314.2 237.1 305.3 239.7 296.4 C242.2 288.1 244.1 279.7 245.7 271.2 C245.9 270.1 246.1 268.9 246.3 267.7 C246.8 265.1 247.3 262.4 247.8 259.8 C248.5 256.4 249.1 253.1 249.7 249.8 C249.9 248.9 250.1 248 250.3 247 C250.6 245.2 251 243.4 251.3 241.6 C252.4 236.2 253.1 230.7 253.7 225.2 C254 223.5 254.3 221.9 254.7 220.2 C257.2 208.2 259.7 192.4 253.7 181.2 C248 175.2 242.6 173.4 234.4 173.7 C226.1 175.1 221.1 180.6 216.5 187.4 Z " fill="#2D2818" transform="translate(326.3125,112.8125)"/>
<path d="M0 0 C0 0.7 0 1.3 0 2 C1.3 2.7 2.6 3.3 4 4 C4.7 5.3 5.3 6.6 6 8 C6.7 8 7.3 8 8 8 C14.2 18.4 15.6 29.7 15.5 41.6 C15.5 42.8 15.5 44.1 15.5 45.3 C15.3 57.1 14.7 70.9 5 79 C4.3 79.3 4.3 79.3 1 81 C0.7 82 0.3 83 0 84 C-7.5 84.7 -12.5 83.4 -18 78 C-19.1 75.5 -19.1 75.5 -20 73 C-20.7 72 -21.3 71.1 -22 70.1 C-29.7 54.4 -27.2 32 -22 16 C-21.8 15.5 -21.8 15.5 -21.1 13 C-17.2 1.8 -11.1 -1.1 0 0 Z " fill="#1E1C14" transform="translate(283,252)"/>
<path d="M0 0 C9.7 5.5 14.6 14.1 15.8 25.1 C16.1 31.5 16.1 37.8 16.2 44.2 C16.2 44.7 16.2 44.7 16.2 47.3 C16.2 56.4 14.8 64.1 10.7 72.3 C10.1 73.5 9.5 74.7 8.9 75.9 C6.2 80.2 4 82.6 -1.1 83.6 C-10.1 83.8 -10.1 83.8 -14.6 80 C-22 67.8 -25.2 57.3 -25.2 43.2 C-25.2 42.3 -25.2 41.4 -25.2 40.4 C-25.2 30.2 -23.1 21.3 -19 12 C-18.8 11.5 -18.8 11.5 -17.7 8.8 C-13.2 1.5 -8.5 -1.3 0 0 Z " fill="#1E1C15" transform="translate(369,252)"/>
<path d="M0 0 C1.7 1.6 1.7 1.6 3.2 3.8 C3.8 4.6 4.4 5.5 5.1 6.3 C5.7 7.2 6.3 8.1 7 9 C12.3 15.8 17.8 22 24 28 C24.4 28.4 24.4 28.4 26.5 30.6 C36.3 39.9 48.3 47.4 61 52 C62 52.5 63 53.1 64 53.6 C67.5 55.2 70.8 55.8 74.5 56.5 C77 57 77 57 79.2 58 C89.9 61.9 102.3 61.3 113.4 61.2 C114.8 61.2 116.2 61.2 117.7 61.2 C133.7 61.1 133.7 61.1 139.8 59.1 C142.8 58.1 145.4 57.7 148.5 57.2 C158.5 55.7 167.4 51.1 176 46 C176.8 45.7 177.7 45.3 178.6 45 C181 44 181 44 184.2 41.9 C187 40 187 40 189 40 C189 39.3 189 38.7 189 38 C190.9 36.8 192.9 35.6 194.8 34.4 C198 32.4 200.4 29.7 203 27 C203.7 27 204.3 27 205 27 C205.7 25.7 206.3 24.4 207 23 C208.1 21.7 209.2 20.4 210.3 19.1 C212.6 16.6 214.6 14.2 216.6 11.5 C219 9 219 9 224 9 C226 11 225.2 13.4 225 16 C222.6 20.4 219.6 23.6 216 27 C215.2 27.8 214.4 28.6 213.5 29.5 C212.7 30.3 211.9 31.1 211 32 C210.6 32.4 210.6 32.4 208.7 34.4 C191.7 51 191.7 51 185 51 C185 51.7 185 52.3 185 53 C181 55.9 176.6 57.3 172 59 C171 59.4 169.9 59.9 168.9 60.3 C161.5 63.5 154.3 65.9 146.6 67.8 C145.7 68 144.9 68.2 144.1 68.4 C133 71.1 122.3 71.2 111 71.2 C110.2 71.2 110.2 71.2 106.1 71.2 C104.5 71.2 103 71.2 101.4 71.2 C100 71.2 98.5 71.2 97.1 71.2 C92.8 71 89.1 70.2 85 69 C84.4 68.8 84.4 68.8 81.1 68.1 C70.3 65.5 61 62 51 57 C49.3 56.3 47.7 55.7 46 55.1 C41.2 53.2 37.2 50.9 33 48 C33 47.3 33 46.7 33 46 C31.7 45.3 30.4 44.7 29 44 C28.7 43.8 28.7 43.8 27 43 C27 42.3 27 41.7 27 41 C25.7 40.7 24.4 40.3 23 40 C18.7 36.9 15.3 33.3 11.9 29.2 C9.8 26.7 7.5 24.3 5.3 21.9 C-3 12.7 -3 12.7 -3 9 C-4 8.7 -5 8.3 -6 8 C-6.8 5.1 -6.8 5.1 -7 2 C-5 0 -5 0 0 0 Z " fill="#2E270F" transform="translate(211,341)"/>
<path d="M0 0 C0.7 0 0.7 0 4.2 0 C7.9 0.4 7.9 0.4 11.9 2.4 C11.9 3 11.9 3.7 11.9 4.4 C12.5 4.4 13.2 4.4 13.9 4.4 C18.3 10.3 18.2 17.2 16 24.1 C13.2 29.9 10.1 32 3.9 33.4 C-3.7 34.1 -8.7 32.8 -14.1 27.4 C-17.1 21.2 -17.1 13.4 -15.5 6.8 C-11.9 0.5 -6.7 -0.1 0 0 Z " fill="#362C0C" transform="translate(562.125,294.625)"/>
<path d="M0 0 C1.2 -0 2.4 -0.1 3.7 -0.1 C8.5 0.4 11 1.8 13.9 5.8 C16.1 12.4 16.3 21 13.1 27.2 C7.2 32.3 1.8 34.3 -5.9 33.2 C-7.3 32.3 -8.6 31.3 -9.9 30.2 C-10.8 29.9 -11.6 29.5 -12.5 29.1 C-17.4 25.4 -18.1 19.8 -18.2 14 C-17.8 7.6 -16.1 4.8 -10.9 1.2 C-7.1 0.3 -3.9 0.1 0 0 Z " fill="#312709" transform="translate(85.9375,294.75)"/>
<path d="M0 0 C0.7 0 1.3 0 2 0 C3.1 5.6 3.1 5.6 2 9 C2.2 9.8 2.4 10.6 2.7 11.4 C3.1 15.1 1.9 16 -0.6 18.6 C-1 19 -1 19 -2.7 20.9 C-5 23 -7.3 24.4 -10 26 C-10.3 26.7 -10.7 27.3 -11 28 C-11.7 28 -12.3 28 -13 28 C-13 28.7 -13 29.3 -13 30 C-20.8 33 -20.8 33 -23 33 C-23 33.7 -23 34.3 -23 35 C-28.4 37.7 -32.9 39.5 -39 40 C-39 40.7 -39 41.3 -39 42 C-50.5 47.8 -64.8 48.7 -77.5 50.7 C-79.1 50.9 -80.7 51.2 -82.4 51.4 C-86.7 52 -90.7 52.1 -95 52 C-95 51.7 -95 51.3 -95 51 C-94.2 50.8 -94.2 50.8 -90 50 C-90.3 49.3 -90.7 48.7 -91 48 C-93.6 47.8 -93.6 47.8 -97 47.9 C-98.2 47.9 -99.4 47.9 -100.6 47.9 C-101.9 47.9 -103.2 48 -104.5 48 C-107 48.1 -109.5 48.1 -112 48.1 C-113.2 48.1 -114.3 48.2 -115.4 48.2 C-116.3 48.1 -117.1 48.1 -118 48 C-118.3 47.3 -118.7 46.7 -119 46 C-118.3 46 -117.5 46 -116.8 46 C-91.4 45.4 -91.4 45.4 -80.2 42.7 C-77 42 -73.9 41.6 -70.6 41.2 C-60.7 39.9 -51.2 36.8 -41.7 33.8 C-39.5 33.2 -37.3 32.5 -35.1 31.9 C-24.6 28.8 -17 22.3 -9 15 C-8.1 14.2 -7.2 13.5 -6.2 12.7 C-3 8.8 -1.7 4.7 0 0 Z " fill="#312C1C" transform="translate(207,464)"/>
<path d="M0 0 C0.5 0.6 1 1.3 1.5 1.9 C2.3 2.9 3.1 4 4 5 C4.6 5.7 5.1 6.4 5.7 7.1 C11 13.5 16.7 17.3 24 21 C24 21.7 24 22.3 24 23 C24.7 23.2 25.4 23.3 26.1 23.5 C30.8 24.7 35.2 26 39.6 28.1 C43.1 29.6 45.6 30.4 49.3 31.1 C54 32 54 32 58 34 C80.5 39.5 103 39.7 126 39 C113.4 45.3 95.4 42.4 82 40 C81.7 41 81.3 42 81 43 C87.1 44.5 92.5 45.2 98.8 45.2 C100.3 45.2 101.9 45.2 103.6 45.2 C104.4 45.2 104.4 45.2 108.6 45.1 C110.3 45.1 111.9 45.1 113.6 45.1 C117.8 45.1 121.9 45 126 45 C126 45.3 126 45.7 126 46 C106.2 49.1 80.9 49.4 62 42 C57 40.4 52.1 39 47 38.1 C40.4 36.8 34.5 34.1 28.4 31.4 C24.3 29.7 20.2 28.4 16 27 C16 26.3 16 25.7 16 25 C15.2 24.7 14.4 24.5 13.6 24.2 C11 23 11 23 10 20 C9.6 19.9 9.6 19.9 7.7 19.1 C4.3 17.7 3.2 15.9 1 13 C0.1 12.2 -0.7 11.4 -1.6 10.6 C-4.2 7.8 -5.1 5.6 -6 2 C-4 2 -2 2 0 2 C0 1.3 0 0.7 0 0 Z " fill="#373324" transform="translate(442,470)"/>
<path d="M0 0 C3 1 3 1 5 5 C5.2 8.3 5.2 11.6 5.2 14.9 C5.2 15.8 5.2 16.7 5.2 17.6 C5.2 21.9 5.1 25.9 4 30 C5.6 30.3 7.3 30.7 9 31 C9 32 9 33 9 34 C9.7 34.2 10.4 34.5 11.1 34.7 C17.3 37.5 20.7 40.8 22.5 47.5 C24.1 55.9 24.2 66.1 19 73 C19.2 72 19.3 71.1 19.5 70.1 C20.1 65.5 20.1 60.9 20.1 56.2 C20.1 55.3 20.1 54.5 20.1 53.6 C20.1 47.3 20.1 47.3 19 45 C16 45 16 45 14 47 C13.8 46.3 13.8 46.3 13 43 C11.4 42.3 9.7 41.6 8 41 C7.2 40.3 6.3 39.6 5.4 38.9 C3 37 3 37 -1 36 C-1.1 36.9 -1.2 37.8 -1.2 38.8 C-3.2 49.9 -7.7 60.6 -14 70 C-14.7 70.2 -14.7 70.2 -18 71 C-20 69 -20 69 -19.8 66.1 C-19 63 -19 63 -16 60 C-15 57 -14 54 -13 51 C-12.3 50.3 -11.7 49.7 -11 49 C-10.5 47.3 -10.1 45.5 -9.8 43.8 C-8.6 38.9 -7.1 34.9 -4.9 30.4 C-1.5 22.9 -1.2 16.2 -1.1 8.1 C-1 4 -1 4 0 0 Z " fill="#34301F" transform="translate(609,395)"/>
<path d="M0 0 C2.8 2.3 4 3.3 4.2 6.9 C4.1 8.1 3.9 9.2 3.8 10.3 C3.7 11 3.7 11 3.3 14.1 C3.2 15.3 3 16.6 2.8 17.9 C2.7 19.2 2.5 20.5 2.3 21.8 C1.3 30.7 1.3 30.7 0.5 34.6 C-0.1 37.6 -0.3 40.5 -0.5 43.5 C-1.7 60.2 -4.9 76.6 -8 93 C-7 93.3 -6 93.7 -5 94 C-5.3 95.6 -5.7 97.3 -6 99 C-7.3 98.7 -8.6 98.3 -10 98 C-10.3 97 -10.7 96 -11 95 C-13.6 95.3 -16.3 95.7 -19 96 C-18 92 -18 92 -15 89 C-14.2 86.5 -14.2 86.5 -13.7 83.6 C-13.5 82.5 -13.3 81.4 -13.1 80.3 C-12.9 79.2 -12.6 78 -12.4 76.8 C-12.3 76.2 -12.3 76.2 -11.8 73.2 C-10.2 64.5 -9 55.8 -8 47 C-7.5 42.5 -7 38 -6.4 33.6 C-6.3 32.4 -6.2 31.3 -6.1 30.2 C-5.9 29.1 -5.8 28.1 -5.7 27 C-5.6 26.1 -5.5 25.1 -5.4 24.2 C-5 22 -5 22 -4 21 C-3.8 19.3 -3.6 17.6 -3.4 15.9 C-3.3 14.3 -3.1 12.7 -3 11 C-5.3 10.7 -7.6 10.3 -10 10 C-10 9.3 -10 8.7 -10 8 C-9.3 7.8 -9.3 7.8 -5.6 6.8 C-1 5 -1 5 0.1 2.3 C0 1.5 0 0.8 0 0 Z " fill="#32290B" transform="translate(522,357)"/>
<path d="M0 0 C9.9 10.4 4.9 31.5 3 44.1 C2.8 44.4 2.8 44.4 2 46.1 C1.6 49.1 1.3 52.1 1 55.1 C0.7 55.1 0.3 55.1 0 55.1 C-0 53.3 -0 51.6 -0.1 49.8 C-0.1 48.8 -0.1 47.8 -0.1 46.8 C0 44.1 0 44.1 1 41.1 C1.1 39 1.1 37 1.1 34.9 C1.1 33.8 1 32.7 1 31.6 C1 30.8 1 30 1 29.1 C0.3 29.3 0.3 29.3 -3 30.1 C-2.5 29.4 -2 28.6 -1.5 27.8 C1.2 21.1 1.1 13.7 -2 7.1 C-2.7 7.1 -3.3 7.1 -4 7.1 C-4.2 6.8 -4.2 6.8 -5 5.1 C-8.7 3.9 -11.9 3.9 -15.8 3.8 C-16.5 3.8 -16.5 3.8 -20 3.7 C-24.5 4.2 -26.6 5.1 -30 8.1 C-30.9 11.7 -31.1 14.4 -31.1 18.1 C-31.1 19.1 -31.1 20.2 -31.1 21.2 C-31 24.1 -31 24.1 -30 28.1 C-31 27.8 -32 27.4 -33 27.1 C-33 23.1 -33 19.2 -33 15.1 C-34.3 15.4 -35.6 15.8 -37 16.1 C-36.6 7.8 -29.9 1.4 -24 -3.9 C-14.8 -6.2 -7.5 -6.1 0 0 Z " fill="#D5BF59" transform="translate(577.99609375,291.90234375)"/>
<path d="M0 0 C1 -0 2.1 -0.1 3.2 -0.1 C6.1 0.2 6.1 0.2 10.1 3.2 C11.3 9.1 11.3 14.6 7.8 19.5 C3 22.6 -0.1 22.8 -5.9 22.2 C-10.9 17.6 -10.9 17.6 -10.9 14.2 C-11.5 14.2 -12.2 14.2 -12.9 14.2 C-13.5 5.9 -13.5 5.9 -10.5 2.8 C-6.6 0.5 -4.5 0.1 0 0 Z " fill="#E6CA54" transform="translate(85.875,299.75)"/>
<path d="M0 0 C4.6 0 9.2 0 14 0 C14 0.7 14 1.3 14 2 C16 2.7 18 3.3 20 4 C20.4 12 19.7 16.3 14 22 C3.5 22.9 3.5 22.9 -1 18 C-3.8 12.5 -1.9 5.6 0 0 Z " fill="#E8CD54" transform="translate(554,300)"/>
<path d="M0 0 C8.9 -0.7 14.2 3.5 20.5 9.4 C22.5 12.4 22.5 12.4 22.5 16.4 C21.9 16.4 21.2 16.4 20.5 16.4 C20.6 17.3 20.6 18.2 20.6 19.2 C20.6 20.4 20.6 21.6 20.7 22.8 C20.7 24 20.7 25.2 20.7 26.4 C20.5 29.4 20.5 29.4 18.5 31.4 C18.6 30.5 18.6 29.5 18.6 28.6 C18.6 27.9 18.6 27.9 18.7 24.8 C18.7 23.6 18.8 22.3 18.8 21.1 C18.5 17.1 17.7 14.8 15.5 11.4 C11.3 9.3 9.2 9.1 4.6 9.2 C3.4 9.2 2.2 9.2 0.9 9.1 C-4.5 9.6 -7.1 11.1 -11.5 14.4 C-13.8 21.4 -12.5 28.5 -10.5 35.4 C-11.1 35.4 -11.8 35.4 -12.5 35.4 C-12.5 41.4 -12.5 47.3 -12.5 53.4 C-18.3 41.9 -18.4 23.2 -15.3 10.9 C-11.4 3.6 -7.8 1.3 0 0 Z " fill="#D1BC5A" transform="translate(81.47265625,286.5859375)"/>
<path d="M0 0 C1 3.9 1.1 6.9 1 10.9 C0.9 21.5 1.5 31.6 4 42 C8.2 65.6 8.2 65.6 4 72 C3.6 74.3 3.3 76.7 3 79 C-0.3 79 -3.6 79 -7 79 C-7 78.7 -7 78.3 -7 78 C-4 78 -1.1 78 2 78 C1.7 77.3 1.4 76.7 1.1 76 C-0.2 72.3 -0.7 68.8 -1.3 65 C-1.5 63.5 -1.7 61.9 -1.9 60.3 C-2.1 58.7 -2.3 57.1 -2.6 55.4 C-3 52.2 -3.4 49.1 -3.9 45.9 C-4.1 44.5 -4.3 43 -4.5 41.6 C-5 38 -5 38 -6 34 C-6 31.7 -6 29.3 -6 27 C-5.3 28 -4.7 29 -4 30 C-2.1 26.2 -1.7 24.7 -1.6 20.7 C-1.6 19.7 -1.6 18.7 -1.5 17.6 C-1.5 16.6 -1.5 15.5 -1.4 14.4 C-1.4 12.4 -1.3 10.3 -1.2 8.2 C-1.2 7.3 -1.2 6.3 -1.2 5.4 C-1 3 -1 3 0 0 Z " fill="#3F3B2B" transform="translate(65,298)"/>
<path d="M0 0 C0.3 0.5 0.3 0.5 2 3 C-1 7 -1 7 -3 7 C-3 7.7 -3 8.3 -3 9 C-12.2 16.2 -21.6 17.8 -33 18 C-34 18 -35 18.1 -36 18.1 C-39.4 18.2 -42.8 18.2 -46.2 18.2 C-47.3 18.3 -48.4 18.3 -49.5 18.3 C-56.9 18.3 -63 17.2 -70 15 C-69 14.7 -68 14.3 -67 14 C-67 13.3 -67 12.7 -67 12 C-66.2 12.1 -65.4 12.1 -64.6 12.2 C-13.8 16.4 -13.8 16.4 0 0 Z " fill="#1B1913" transform="translate(591,498)"/>
<path d="M0 0 C2.7 2.2 3.9 3.2 4.2 6.8 C4.1 7.9 3.9 9 3.8 10.1 C3.7 11.3 3.5 12.4 3.4 13.7 C3.3 14.3 3.3 14.3 2.9 17.4 C2.7 18.6 2.6 19.9 2.4 21.1 C1.5 29.1 0.3 37 -1 45 C-1.7 45 -2.3 45 -3 45 C-3 48.3 -3 51.6 -3 55 C-4 55 -5 55 -6 55 C-10.3 46.4 -6.6 31.1 -5 22 C-4.7 21.7 -4.3 21.3 -4 21 C-3.8 19.3 -3.6 17.6 -3.4 15.9 C-3.3 14.3 -3.1 12.7 -3 11 C-5.3 10.7 -7.6 10.3 -10 10 C-10 9.3 -10 8.7 -10 8 C-8.5 7.6 -7.1 7.2 -5.6 6.8 C-1 5 -1 5 0.1 2.3 C0 1.5 0 0.8 0 0 Z " fill="#211B08" transform="translate(522,357)"/>
<path d="M0 0 C0.3 0 0.7 0 1 0 C1.1 0.9 1.2 1.7 1.3 2.6 C2.5 12.7 3.7 22.8 5 32.9 C5.2 34.2 5.3 35.5 5.5 36.9 C8.4 59.1 8.4 59.1 13 63 C13 64.3 13 65.6 13 67 C11.3 66.7 9.7 66.3 8 66 C8 65.3 8 64.7 8 64 C7 64 6 64 5 64 C4.7 65.3 4.3 66.6 4 68 C3.3 68.2 3.3 68.2 0 69 C0.2 67.5 0.4 66 0.6 64.4 C1.3 57.2 0.2 50.6 -1 43.5 C-1.4 41 -1.8 38.5 -2.2 36 C-2.4 34.9 -2.5 33.9 -2.7 32.7 C-3 30 -3 30 -2 27 C-1.3 28 -0.7 29 0 30 C0.7 30 1.3 30 2 30 C1.9 28.8 1.7 27.7 1.6 26.5 C0.5 17.6 -0.2 9 0 0 Z " fill="#352B0D" transform="translate(131,386)"/>
<path d="M0 0 C4.3 4 7.6 7.3 9 13 C7.7 13.3 6.4 13.7 5 14 C5.1 14.3 5.1 14.3 5.5 16 C6.1 19.7 6.1 23.1 6.1 26.8 C6.1 28.2 6 29.5 6 30.9 C6 31.9 6 32.9 6 34 C5.7 34 5.3 34 5 34 C5 33.5 5 33.5 4.9 31.3 C3.9 12.8 3.9 12.8 -2.8 7.4 C-9 3.7 -16 4.5 -23 5 C-24 2 -24 2 -23 0 C-28 3 -32 5.7 -36 10 C-36.3 10.2 -36.3 10.2 -38 11 C-30.9 -3.1 -13.7 -7.6 0 0 Z " fill="#393527" transform="translate(578,283)"/>
<path d="M0 0 C0 0.7 0 1.3 0 2 C1.6 1.3 3.3 0.7 5 0 C4.8 1 4.5 2 4.3 3 C1.1 16.6 -1 30.2 -3 44 C-3.3 44 -3.7 44 -4 44 C-4 41 -4 38.1 -4 35 C-5.3 35.7 -6.6 36.3 -8 37 C-9.6 37 -11.3 37 -13 37 C-12.3 36.8 -12.3 36.8 -9 36 C-9 35.2 -8.9 34.4 -8.9 33.6 C-8.4 25.5 -7 17.9 -5 10 C-4.6 8.3 -4.2 6.5 -3.9 4.8 C-2.8 0 -2.8 0 0 0 Z " fill="#363325" transform="translate(529,326)"/>
<path d="M0 0 C1 3.2 1.9 6.3 2.9 9.5 C3.1 10.4 3.4 11.3 3.7 12.2 C8 26.5 8 26.5 8 32 C7.7 32.2 7.7 32.2 6 33 C5.6 35.7 5.3 38.3 5 41 C3 40 3 40 2.5 36.8 C2.3 35.5 2.2 34.3 2 33 C1.3 31.3 0.7 29.7 0 28 C-0.5 26 -1 24 -1.5 22.1 C-2.3 18.9 -3 15.9 -4.2 12.8 C-5.3 8.8 -5.2 5.1 -5 1 C-4 0 -4 0 0 0 Z " fill="#232014" transform="translate(502,232)"/>
<path d="M0 0 C2.9 2.9 3.1 6.1 4.1 10.1 C5.9 17.9 5.9 17.9 7 19 C10 31.7 10.3 44.6 10.4 57.6 C10.4 59.2 10.4 60.7 10.4 62.3 C10.4 73.2 9.1 83.3 7 94 C6.7 94 6.3 94 6 94 C6.1 92.4 6.1 90.8 6.2 89.2 C7.4 61.4 7.1 35 0.8 7.7 C0 4 0 4 0 0 Z " fill="#C0AC51" transform="translate(498,246)"/>
<path d="M0 0 C-11.5 5.8 -25.8 6.7 -38.5 8.7 C-39.3 8.8 -39.3 8.8 -43.4 9.4 C-47.7 10 -51.7 10.1 -56 10 C-56 9.7 -56 9.3 -56 9 C-54.3 8.7 -52.7 8.3 -51 8 C-51.3 7.3 -51.7 6.7 -52 6 C-54.6 5.8 -54.6 5.8 -58 5.9 C-58.6 5.9 -58.6 5.9 -61.6 5.9 C-62.9 5.9 -64.2 6 -65.5 6 C-68 6.1 -70.5 6.1 -73 6.1 C-74.2 6.1 -75.3 6.2 -76.4 6.2 C-77.3 6.1 -78.1 6.1 -79 6 C-79.3 5.3 -79.7 4.7 -80 4 C-79.3 4 -78.6 3.9 -77.8 3.9 C-74.4 3.8 -71.1 3.7 -67.7 3.6 C-67.1 3.5 -67.1 3.5 -64 3.4 C-55.1 3.1 -46.3 2.7 -37.4 2.1 C-34 2 -34 2 -32 3 C-32 3.7 -32 4.3 -32 5 C-22.8 4.1 -14.3 2.8 -5.6 -0.3 C-3 -1 -3 -1 0 0 Z " fill="#4B4636" transform="translate(168,506)"/>
<path d="M0 0 C9.9 10.4 4.9 31.5 3 44.1 C2.7 44.8 2.3 45.4 2 46.1 C1.6 49.1 1.3 52.1 1 55.1 C0.7 55.1 0.3 55.1 0 55.1 C-0 53.3 -0 51.6 -0.1 49.8 C-0.1 48.8 -0.1 47.8 -0.1 46.8 C0 44.1 0 44.1 1 41.1 C1.1 39 1.1 37 1.1 34.9 C1.1 33.8 1 32.7 1 31.6 C1 30.8 1 30 1 29.1 C0.3 29.3 0.3 29.3 -3 30.1 C-2.5 29.4 -2 28.6 -1.5 27.8 C1.6 20.2 0.9 12.3 -3 5.1 C-2.3 5.1 -1.7 5.1 -1 5.1 C-1.7 3.4 -2.3 1.8 -3 0.1 C-4.6 0.1 -6.3 0.1 -8 0.1 C-8.3 -0.9 -8.7 -1.9 -9 -2.9 C-15.1 -3.1 -20.1 -2.6 -26 -0.9 C-20.4 -9.4 -6.6 -5.3 0 0 Z " fill="#C6B45C" transform="translate(577.99609375,291.90234375)"/>
</svg>
